/* XPM */
static char * colon_xpm[] = {
"50 50 46 1",
" 	c #000000",
".	c #020202",
"+	c #010101",
"@	c #7E7E7E",
"#	c #B0B0B0",
"$	c #949494",
"%	c #191919",
"&	c #9B9B9B",
"*	c #F5F5F5",
"=	c #FEFEFE",
"-	c #FBFBFB",
";	c #030303",
">	c #DBDBDB",
",	c #FDFDFD",
"'	c #FFFFFF",
")	c #A7A7A7",
"!	c #C9C9C9",
"~	c #FAFAFA",
"{	c #8A8A8A",
"]	c #545454",
"^	c #C4C4C4",
"/	c #EAEAEA",
"(	c #BCBCBC",
"_	c #353535",
":	c #202020",
"<	c #3E3E3E",
"[	c #1C1C1C",
"}	c #3C3C3C",
"|	c #272727",
"1	c #494949",
"2	c #C1C1C1",
"3	c #D2D2D2",
"4	c #5D5D5D",
"5	c #C3C3C3",
"6	c #FCFCFC",
"7	c #B4B4B4",
"8	c #DFDFDF",
"9	c #8E8E8E",
"0	c #A3A3A3",
"a	c #F6F6F6",
"b	c #F1F1F1",
"c	c #717171",
"d	c #0B0B0B",
"e	c #868686",
"f	c #AEAEAE",
"g	c #787878",
"                                                  ",
"                                                  ",
"                                                  ",
"                                                  ",
"                                                  ",
"                                                  ",
"                                                  ",
"                                                  ",
"                                                  ",
"                                                  ",
"                                                  ",
"                                                  ",
"                                                  ",
"                    ..++++++                      ",
"                    +.+++..+                      ",
"                    +++ @#$%                      ",
"                    ++ &*=-&                      ",
"                    .; >,,')                      ",
"                    ++ !',~{                      ",
"                    .+.]^/(_                      ",
"                    +.++:<[                       ",
"                                                  ",
"                                                  ",
"                                                  ",
"                                                  ",
"                                                  ",
"                                                  ",
"                                                  ",
"                                                  ",
"                     +++%}|                       ",
"                    .+.12/34                      ",
"                   ++. 5,6,7                      ",
"                     + 8==69                      ",
"                    ++ 0a,bc                      ",
"                    . +defg                       ",
"                    +.++.;.+                      ",
"                    ++++++++                      ",
"                                                  ",
"                                                  ",
"                                                  ",
"                                                  ",
"                                                  ",
"                                                  ",
"                                                  ",
"                                                  ",
"                                                  ",
"                                                  ",
"                                                  ",
"                                                  ",
"                                                  "};
