/* XPM */
static char * digit8_xpm[] = {
"50 50 128 2",
"  	c #000000",
". 	c #020202",
"+ 	c #010101",
"@ 	c #030303",
"# 	c #090909",
"$ 	c #0E0E0E",
"% 	c #050505",
"& 	c #343434",
"* 	c #C4C4C4",
"= 	c #E2E2E2",
"- 	c #F0F0F0",
"; 	c #F2F2F2",
"> 	c #EBEBEB",
", 	c #CBCBCB",
"' 	c #8B8B8B",
") 	c #727272",
"! 	c #F4F4F4",
"~ 	c #FEFEFE",
"{ 	c #FFFFFF",
"] 	c #FDFDFD",
"^ 	c #898989",
"/ 	c #040404",
"( 	c #666666",
"_ 	c #FBFBFB",
": 	c #A5A5A5",
"< 	c #1E1E1E",
"[ 	c #E8E8E8",
"} 	c #F9F9F9",
"| 	c #FCFCFC",
"1 	c #494949",
"2 	c #B6B6B6",
"3 	c #CACACA",
"4 	c #060606",
"5 	c #232323",
"6 	c #E6E6E6",
"7 	c #F6F6F6",
"8 	c #434343",
"9 	c #464646",
"0 	c #FAFAFA",
"a 	c #D8D8D8",
"b 	c #404040",
"c 	c #444444",
"d 	c #4F4F4F",
"e 	c #DADADA",
"f 	c #A4A4A4",
"g 	c #737373",
"h 	c #626262",
"i 	c #393939",
"j 	c #F1F1F1",
"k 	c #C5C5C5",
"l 	c #7A7A7A",
"m 	c #363636",
"n 	c #DBDBDB",
"o 	c #BABABA",
"p 	c #2E2E2E",
"q 	c #484848",
"r 	c #DDDDDD",
"s 	c #3A3A3A",
"t 	c #C1C1C1",
"u 	c #B3B3B3",
"v 	c #313131",
"w 	c #C0C0C0",
"x 	c #696969",
"y 	c #C7C7C7",
"z 	c #F7F7F7",
"A 	c #D4D4D4",
"B 	c #D2D2D2",
"C 	c #6F6F6F",
"D 	c #717171",
"E 	c #555555",
"F 	c #ADADAD",
"G 	c #EEEEEE",
"H 	c #F3F3F3",
"I 	c #747474",
"J 	c #353535",
"K 	c #CFCFCF",
"L 	c #F8F8F8",
"M 	c #ECECEC",
"N 	c #EFEFEF",
"O 	c #383838",
"P 	c #3B3B3B",
"Q 	c #F5F5F5",
"R 	c #BFBFBF",
"S 	c #1F1F1F",
"T 	c #2D2D2D",
"U 	c #E0E0E0",
"V 	c #202020",
"W 	c #C3C3C3",
"X 	c #B8B8B8",
"Y 	c #757575",
"Z 	c #BDBDBD",
"` 	c #CECECE",
" .	c #929292",
"..	c #CDCDCD",
"+.	c #6A6A6A",
"@.	c #6B6B6B",
"#.	c #7F7F7F",
"$.	c #B1B1B1",
"%.	c #D6D6D6",
"&.	c #181818",
"*.	c #A3A3A3",
"=.	c #808080",
"-.	c #545454",
";.	c #D7D7D7",
">.	c #DFDFDF",
",.	c #ABABAB",
"'.	c #C2C2C2",
").	c #CCCCCC",
"!.	c #949494",
"~.	c #787878",
"{.	c #B2B2B2",
"].	c #979797",
"^.	c #B0B0B0",
"/.	c #888888",
"(.	c #0B0B0B",
"_.	c #777777",
":.	c #1C1C1C",
"<.	c #4C4C4C",
"[.	c #797979",
"}.	c #2F2F2F",
"|.	c #828282",
"1.	c #E7E7E7",
"2.	c #EAEAEA",
"3.	c #414141",
"4.	c #D1D1D1",
"5.	c #8F8F8F",
"6.	c #565656",
"7.	c #8A8A8A",
"                                                                                                    ",
"                                                                                                    ",
"                                                                                                    ",
"                                                                                                    ",
"                                                                                                    ",
"                                                                                                    ",
"                                                                                                    ",
"                                                                                                    ",
"                                  . + . +   @ .   + @     . @                                       ",
"                                  + + .   . . # $ $ $ @ % + @                                       ",
"                                      . + & * = - ; > , '                                           ",
"                                  + @   ) ! ~ { ~ { { ] ~ ^                                         ",
"                                  + / ( _ { ~ { ~ ~ ~ { ~ ~ : .   +                                 ",
"                                  + < [ } { ] | | ~ ~ ] | { ] 1 + + .                               ",
"                                  @ 2 { ~ { { | _ ] ~ _ { ] { 3 4 + .                               ",
"                                  5 > _ { ~ { [ 6 { { ] ] ~ ] 7 8 . +                               ",
"                                  9 0 ~ | { a   b c d e ~ ] ~ ~ f   .                               ",
"                                  g ] ~ { } h   + / + i j { ~ ~ k + +                               ",
"                                  l { | ] - m % + + + @ n { | { o p .                               ",
"                                  q , { ] r s @   @   + t [ ~ { u v .                               ",
"                                  & w j ] [ x   . + +   y a { z 2   .                               ",
"                              +   + A a ~ ] B l C D E   F G { H I                                   ",
"                          . .   %   J K 0 | 0 L L 7 H M j N ] r O . +                               ",
"                            + /   # P Q | _ ~ ~ 0 | _ _ ~ { ~ R S   @                               ",
"                          + .   T a U | | ] { | ~ ~ _ ~ _ ~ ] ~ e V +                               ",
"                            +   W ~ ] { ~ ] ~ ~ { ~ { ~ ~ ] ] { ] X                                 ",
"                          + + Y { ] ] { L ~ | Z ` { { ~ ] ~ ] { ] |  .  +   +                       ",
"                          +   y | ~ ~ ] M ..+.. / @.#.$.= _ ~ ] { ] ! T % .   +                     ",
"                          + + ] ] ~ ] ~ %.P .   / + + . &.2 ] { | { { *.% . + .                     ",
"                          @ =.{ ~ ~ ~ ~ -.  @ + + . + + .   ;.{ ~ ] { 3 @ + @                       ",
"                          + *.{ | ~ ] >.        +   . + . +  .~ { { | A 4 /                         ",
"                          + ,.~ ~ ] | '.  +         + . + + ) ] ~ ~ ~ ).+ + +                       ",
"                            !.{ 0 ~ ~ -   @         + + . @ ~.| { { { {./ + +                       ",
"                            !.{ ~ { ~ ~ ].+         %   .   ^.{ ] { ] /.+   %                       ",
"                            4 } ~ ~ ~ ~ %.(.        + @ + _.0 { { ~ z     + + .                     ",
"                          +   {.] ] ~ ~ ~ t :.  + + +   /.; ~ _ ~ { ^.                              ",
"                          @ . <.; { ~ ~ ] { e [.}.c |.Z 1.{ ] ] | 2.3.                              ",
"                            .   _._ ] { ] ~ ~ _ ~ 2.n j ~ ] ~ { 7 x                                 ",
"                          +   + . Y ; ] ~ | { ~ | | ] ~ { ] ] = @.  @                               ",
"                            +       1 * ] ~ { { ~ ~ | ~ ~ N ).<.  + +                               ",
"                                        g w ! { { { ; M 4.5.  . @ + +                               ",
"                                  + / . @     6.7.7.g       .   / @                                 ",
"                                  +   / + . + + @   @ + + + / . + + +                               ",
"                                  + @   @ . + @   + +     @       @ +                               ",
"                                                                                                    ",
"                                                                                                    ",
"                                                                                                    ",
"                                                                                                    ",
"                                                                                                    ",
"                                                                                                    "};
