/* XPM */
static char * digit3_xpm[] = {
"50 50 137 2",
"  	c #000000",
". 	c #020202",
"+ 	c #010101",
"@ 	c #030303",
"# 	c #393939",
"$ 	c #9D9D9D",
"% 	c #949494",
"& 	c #343434",
"* 	c #323232",
"= 	c #1D1D1D",
"- 	c #2E2E2E",
"; 	c #4E4E4E",
"> 	c #474747",
", 	c #1E1E1E",
"' 	c #6C6C6C",
") 	c #8B8B8B",
"! 	c #838383",
"~ 	c #262626",
"{ 	c #5D5D5D",
"] 	c #E9E9E9",
"^ 	c #F4F4F4",
"/ 	c #F3F3F3",
"( 	c #F2F2F2",
"_ 	c #F0F0F0",
": 	c #EFEFEF",
"< 	c #FDFDFD",
"[ 	c #EBEBEB",
"} 	c #E2E2E2",
"| 	c #E0E0E0",
"1 	c #DADADA",
"2 	c #C7C7C7",
"3 	c #D3D3D3",
"4 	c #EDEDED",
"5 	c #E3E3E3",
"6 	c #CDCDCD",
"7 	c #6D6D6D",
"8 	c #4A4A4A",
"9 	c #E4E4E4",
"0 	c #FCFCFC",
"a 	c #FEFEFE",
"b 	c #FFFFFF",
"c 	c #E8E8E8",
"d 	c #616161",
"e 	c #C4C4C4",
"f 	c #777777",
"g 	c #4D4D4D",
"h 	c #DCDCDC",
"i 	c #F9F9F9",
"j 	c #F5F5F5",
"k 	c #888888",
"l 	c #CFCFCF",
"m 	c #C6C6C6",
"n 	c #C0C0C0",
"o 	c #ACACAC",
"p 	c #919191",
"q 	c #696969",
"r 	c #626262",
"s 	c #D7D7D7",
"t 	c #232323",
"u 	c #CECECE",
"v 	c #5A5A5A",
"w 	c #8E8E8E",
"x 	c #F6F6F6",
"y 	c #6A6A6A",
"z 	c #555555",
"A 	c #EEEEEE",
"B 	c #BEBEBE",
"C 	c #171717",
"D 	c #FAFAFA",
"E 	c #A4A4A4",
"F 	c #212121",
"G 	c #5E5E5E",
"H 	c #808080",
"I 	c #E6E6E6",
"J 	c #B6B6B6",
"K 	c #575757",
"L 	c #969696",
"M 	c #373737",
"N 	c #A2A2A2",
"O 	c #5C5C5C",
"P 	c #DDDDDD",
"Q 	c #565656",
"R 	c #727272",
"S 	c #A6A6A6",
"T 	c #B9B9B9",
"U 	c #B1B1B1",
"V 	c #A3A3A3",
"W 	c #B3B3B3",
"X 	c #414141",
"Y 	c #404040",
"Z 	c #040404",
"` 	c #3C3C3C",
" .	c #909090",
"..	c #8A8A8A",
"+.	c #FBFBFB",
"@.	c #C1C1C1",
"#.	c #D9D9D9",
"$.	c #0D0D0D",
"%.	c #C9C9C9",
"&.	c #515151",
"*.	c #444444",
"=.	c #5B5B5B",
"-.	c #848484",
";.	c #737373",
">.	c #BBBBBB",
",.	c #AFAFAF",
"'.	c #222222",
").	c #929292",
"!.	c #787878",
"~.	c #606060",
"{.	c #636363",
"].	c #999999",
"^.	c #DEDEDE",
"/.	c #D5D5D5",
"(.	c #7E7E7E",
"_.	c #7B7B7B",
":.	c #2F2F2F",
"<.	c #3B3B3B",
"[.	c #989898",
"}.	c #DFDFDF",
"|.	c #898989",
"1.	c #BFBFBF",
"2.	c #E5E5E5",
"3.	c #CACACA",
"4.	c #D2D2D2",
"5.	c #CCCCCC",
"6.	c #B2B2B2",
"7.	c #080808",
"8.	c #D0D0D0",
"9.	c #F8F8F8",
"0.	c #A1A1A1",
"a.	c #434343",
"b.	c #595959",
"c.	c #8C8C8C",
"d.	c #AEAEAE",
"e.	c #818181",
"f.	c #424242",
"                                                                                                    ",
"                                                                                                    ",
"                                                                                                    ",
"                                                                                                    ",
"                                                                                                    ",
"                                                                                                    ",
"                                                                                                    ",
"                                                                                                    ",
"                                                                                                    ",
"                                                                                                    ",
"                                                                                                    ",
"                              . +   + + . + + . . . + + @ + . . @ + + + . @                         ",
"                              # $ % &       * =       - ; >   , ' ) ! ~ @ + +                       ",
"                              { ] ^ / ( _ : < < [ } | 1 2 3 4 5 6 7 ,   + . +                       ",
"                              8 9 0 _ a < a b a a a < < b < b < b 0 c d @ . +                       ",
"                                e a 0 a a < a < a < b a a a < < < : / f   + +                       ",
"                            + + g h a b b b < b b b b 0 i < < b j 9 k   . + +                       ",
"                              @ . & l 5 1 m n o p q r [ < a a b s r + + + + +                       ",
"                              . +             + + t u a < a 0 [ v   + + + + +                       ",
"                                      . + + . +   w < a a a x y + + .                               ",
"                                    + @   . +   z A a a a a B   + + +                               ",
"                                      @ +   . C 6 a 0 a D E   .   + +                               ",
"                                      + F G   H I a b < J   + .   . +                               ",
"                                        K 4 4 x 0 a a / 5 L   . . +                                 ",
"                                      . M 1 j < a a a < i D e   + + .                               ",
"                                      +   E a a a < < a < D D N . . .                               ",
"                                      .   O ( b b a c 4 a < _ P Q +                                 ",
"                                      . .   R S T U V ) i a < _ W + +                               ",
"                                      . . + @ @   . + X I < 0 b 4 Y .                               ",
"                                    + + . .   Z @ . + ` 9 a 0 < D  .+                               ",
"                                      . + . + + . + +   ..< +.a < @.+                               ",
"                      + @ . . . @ + +                 . 8 [ 0 a < #.                                ",
"                      @ + . . $.  . +                 + X I b a < %.                                ",
"                      + +   &.~ *.+                   . =.x a a a T                                 ",
"                      + + @ 8 -.;.K                   @ >.a 0 a b ,.                                ",
"                            '.).!.2 ~.  . . . . +     E i b a 0 ^ {.                                ",
"                              =.].^./.% (._.:.  <.[.}.a 0 a < < U   +                               ",
"                                |.1./ 2.3.4.P 5.P +.a a a 0 +.6.  + .                               ",
"                              . 7...8.I / a a b a a < < a 9.0.  + +                                 ",
"                              + .   a.[.P / a b b b b _ @.b.                                        ",
"                              + . + @     ' c.N d.o e.f.  + @                                       ",
"                              + + + . + @ +           .   @ +                                       ",
"                                + . . @ .   + + + + + . . + +                                       ",
"                                                                                                    ",
"                                                                                                    ",
"                                                                                                    ",
"                                                                                                    ",
"                                                                                                    ",
"                                                                                                    ",
"                                                                                                    "};
