/* XPM */
static char * digit0_xpm[] = {
"50 50 186 2",
"  	c #000000",
". 	c #010101",
"+ 	c #020202",
"@ 	c #030303",
"# 	c #111111",
"$ 	c #131313",
"% 	c #090909",
"& 	c #393939",
"* 	c #9C9C9C",
"= 	c #CDCDCD",
"- 	c #C2C2C2",
"; 	c #A3A3A3",
"> 	c #BEBEBE",
", 	c #B3B3B3",
"' 	c #B1B1B1",
") 	c #828282",
"! 	c #040404",
"~ 	c #1F1F1F",
"{ 	c #808080",
"] 	c #E9E9E9",
"^ 	c #FDFDFD",
"/ 	c #FEFEFE",
"( 	c #FCFCFC",
"_ 	c #FFFFFF",
": 	c #D1D1D1",
"< 	c #0E0E0E",
"[ 	c #464646",
"} 	c #D7D7D7",
"| 	c #F1F1F1",
"1 	c #D8D8D8",
"2 	c #999999",
"3 	c #6C6C6C",
"4 	c #F8F8F8",
"5 	c #F5F5F5",
"6 	c #EAEAEA",
"7 	c #929292",
"8 	c #494949",
"9 	c #757575",
"0 	c #F4F4F4",
"a 	c #FBFBFB",
"b 	c #F0F0F0",
"c 	c #DEDEDE",
"d 	c #9F9F9F",
"e 	c #B4B4B4",
"f 	c #121212",
"g 	c #656565",
"h 	c #EEEEEE",
"i 	c #F9F9F9",
"j 	c #FAFAFA",
"k 	c #F3F3F3",
"l 	c #AFAFAF",
"m 	c #070707",
"n 	c #060606",
"o 	c #2A2A2A",
"p 	c #DCDCDC",
"q 	c #D4D4D4",
"r 	c #A7A7A7",
"s 	c #ECECEC",
"t 	c #989898",
"u 	c #BDBDBD",
"v 	c #7C7C7C",
"w 	c #222222",
"x 	c #E7E7E7",
"y 	c #6A6A6A",
"z 	c #E3E3E3",
"A 	c #4F4F4F",
"B 	c #232323",
"C 	c #DFDFDF",
"D 	c #E0E0E0",
"E 	c #606060",
"F 	c #CFCFCF",
"G 	c #555555",
"H 	c #6D6D6D",
"I 	c #A9A9A9",
"J 	c #535353",
"K 	c #EFEFEF",
"L 	c #565656",
"M 	c #EDEDED",
"N 	c #E4E4E4",
"O 	c #C7C7C7",
"P 	c #C0C0C0",
"Q 	c #0A0A0A",
"R 	c #C9C9C9",
"S 	c #4C4C4C",
"T 	c #343434",
"U 	c #E6E6E6",
"V 	c #727272",
"W 	c #A6A6A6",
"X 	c #848484",
"Y 	c #4D4D4D",
"Z 	c #D6D6D6",
"` 	c #838383",
" .	c #6F6F6F",
"..	c #212121",
"+.	c #F6F6F6",
"@.	c #C6C6C6",
"#.	c #BBBBBB",
"$.	c #E2E2E2",
"%.	c #262626",
"&.	c #8A8A8A",
"*.	c #E1E1E1",
"=.	c #A8A8A8",
"-.	c #595959",
";.	c #F2F2F2",
">.	c #D9D9D9",
",.	c #3A3A3A",
"'.	c #1D1D1D",
").	c #151515",
"!.	c #CECECE",
"~.	c #2D2D2D",
"{.	c #434343",
"].	c #979797",
"^.	c #050505",
"/.	c #141414",
"(.	c #CBCBCB",
"_.	c #919191",
":.	c #383838",
"<.	c #F7F7F7",
"[.	c #414141",
"}.	c #878787",
"|.	c #3C3C3C",
"1.	c #DDDDDD",
"2.	c #0C0C0C",
"3.	c #272727",
"4.	c #747474",
"5.	c #3F3F3F",
"6.	c #ABABAB",
"7.	c #323232",
"8.	c #5E5E5E",
"9.	c #313131",
"0.	c #DBDBDB",
"a.	c #BFBFBF",
"b.	c #444444",
"c.	c #8E8E8E",
"d.	c #AEAEAE",
"e.	c #484848",
"f.	c #E8E8E8",
"g.	c #D0D0D0",
"h.	c #DADADA",
"i.	c #0B0B0B",
"j.	c #7F7F7F",
"k.	c #D2D2D2",
"l.	c #959595",
"m.	c #E5E5E5",
"n.	c #A1A1A1",
"o.	c #BCBCBC",
"p.	c #191919",
"q.	c #585858",
"r.	c #C8C8C8",
"s.	c #A2A2A2",
"t.	c #939393",
"u.	c #0F0F0F",
"v.	c #353535",
"w.	c #D5D5D5",
"x.	c #474747",
"y.	c #B7B7B7",
"z.	c #898989",
"A.	c #B9B9B9",
"B.	c #9A9A9A",
"C.	c #6B6B6B",
"D.	c #7D7D7D",
"E.	c #B5B5B5",
"F.	c #5B5B5B",
"G.	c #C4C4C4",
"H.	c #696969",
"I.	c #101010",
"J.	c #363636",
"K.	c #CCCCCC",
"L.	c #787878",
"M.	c #1A1A1A",
"N.	c #A4A4A4",
"O.	c #949494",
"P.	c #9E9E9E",
"Q.	c #636363",
"R.	c #3D3D3D",
"S.	c #8D8D8D",
"T.	c #C3C3C3",
"U.	c #A5A5A5",
"V.	c #404040",
"W.	c #161616",
"X.	c #3B3B3B",
"Y.	c #A0A0A0",
"Z.	c #B2B2B2",
"`.	c #ACACAC",
" +	c #888888",
".+	c #0D0D0D",
"                                                                                                    ",
"                                                                                                    ",
"                                                                                                    ",
"                                                                                                    ",
"                                                                                                    ",
"                                        .   .           .       .                                   ",
"                                + . + +   + . . @ # $ . %       . @                                 ",
"                                @ + @ + @ .   & * = - ; > , ' ) % @ ! +                             ",
"                                . + . +   ~ { ] ^ / ( ( _ / ( : < . ! .                             ",
"                                  @   ! [ } ^ _ _ / ^ ( / _ / | 1 2   .                             ",
"                        +       . .   3 ] _ _ ^ / / ^ _ / ^ 4 5 6 7 8       +                       ",
"                      ! .   +   ! . 9 0 _ ^ _ _ a _ ^ ^ _ ^ / / a b c d e f . + @                   ",
"                        @ . . .   g h / / ( _ ( _ / / ^ / _ / ( i _ _ j k l m . .                   ",
"                      . . . . n o p / _ / _ _ / 5 q r 4 / ( / ( ( / / s j t + . .                   ",
"                      .   + @   u ( / ( ^ ^ ^ | v w < 1 ^ ( / / ^ / ( a x   + . .                   ",
"                              y i / ( _ _ _ z A   . . B C _ / / / _ / D E .   .                     ",
"                      @   +   F ^ _ _ / / 6 G . . .   H a / ^ _ / / ( I   !   . .                   ",
"                      . @ + J ^ / / ^ ( K L   . @ @ J M _ ^ _ / ( / / N                             ",
"                        . @ O ^ / / / / P Q . + +   R _ ^ / a _ ^ ^ _ b S   !                       ",
"                      . @ T U / / ^ ^ ( V   . ! ! W ^ _ / a ^ ^ ^ / ^ 4 X   . .                     ",
"                      . . Y i ^ _ ^ _ Z   + +   J 0 / _ / ^ ^ / ^ ^ _ _ u   . +                     ",
"                          ` _ / ^ / j  ..   ! ..z ( / ^ ^ / +.4 ^ ( _ _ @.  . . +                   ",
"                          #._ _ / ^ $.%.+ + + I ^ _ ^ _ a _ &.z _ / _ / U   . .                     ",
"                          *._ / _ ( =.  +   -.;.^ ^ / ^ _ >.,.1 / ^ / ^ }   .   .                   ",
"                      +   5 / / / _ y   @ '.>.^ ( / _ / $.& ).!._ / a / #.  n .                     ",
"                        ~.+._ ( / / {.    ].a _ _ / _ : {.^./.(./ / / _ _.    . .                   ",
"                        :.<._ _ _ _ ).. -.( ( / _ / 6 [.. . B c ( / _ ( }.+ .   @                   ",
"                        |.<./ / _ 1.2.$ (._ _ a _ k ].! + @ 3.$./ / _ 4 4.. . +                     ",
"                        5.0 _ ^ / C m 9 i ^ ( / ( 6.  . !   7.;./ / _ 0 8.@ . .                     ",
"                        9.<.a / ^ 0.~.*.1 / / ( a.:.! !     b._ _ _ a *.7.    . +                   ",
"                      .   k _ ( / c c.d.a / / p e.  + + .   * _ / ^ / >                             ",
"                          0 a _ / f.g.U / ^ h.v i.+ . @     >./ / / 5 j.                            ",
"                          k.j ^ / k c / _ 5 l./.  + . + + T | / _ / m.S                             ",
"                          n.h._ ^ 5 K / ^ o.b.  . .   . + 4.k _ / ( : p.                            ",
"                      +   q.r.^ _ a i j ] 9   ^..   + +   s.: _ ^ ^ t.u.                            ",
"                      +   T R c ^ ^ 4 k d 2.. @ . +   + v.w.h / / m.x.                              ",
"                      . . ! , y.( ( _ h z.            5.k.A.j a | ; '..                             ",
"                      .   . '.>.i a _ / k D A.B.C.D.r f.( j / / E.Y   .                             ",
"                          + F.G.( <.j _ <.C >.] 1.K K k ^ / ^ w.H.I.+ +                             ",
"                      + + J.g = K.x 0 m.s 5 j f.^ / _ ^ / ( 1 L.@ n   !                             ",
"                        ! M.N.R O.d P.6 ;.j ^ ^ a m.s ^ s E.Q.u.                                    ",
"                      . @   R.j.(.l S.` #.R h.T.] 6 : U.H.V.                                        ",
"                      + + W.X.q.L.~ 4.6.e Y.Z.`. +& ..n @   +                                       ",
"                      @ + ! .+5.w @                 + + . . @                                       ",
"                        + @ + ^.. . + + . + .   + + +   .   .                                       ",
"                                                                                                    ",
"                                                                                                    ",
"                                                                                                    ",
"                                                                                                    ",
"                                                                                                    "};
