/* XPM */
static char * digit1_xpm[] = {
"50 50 93 2",
"  	c #000000",
". 	c #020202",
"+ 	c #010101",
"@ 	c #121212",
"# 	c #646464",
"$ 	c #232323",
"% 	c #3E3E3E",
"& 	c #171717",
"* 	c #030303",
"= 	c #A3A3A3",
"- 	c #B5B5B5",
"; 	c #C3C3C3",
"> 	c #DADADA",
", 	c #929292",
"' 	c #050505",
") 	c #7A7A7A",
"! 	c #DBDBDB",
"~ 	c #FDFDFD",
"{ 	c #E4E4E4",
"] 	c #A7A7A7",
"^ 	c #080808",
"/ 	c #686868",
"( 	c #EBEBEB",
"_ 	c #FEFEFE",
": 	c #FBFBFB",
"< 	c #FCFCFC",
"[ 	c #7F7F7F",
"} 	c #0B0B0B",
"| 	c #8B8B8B",
"1 	c #E7E7E7",
"2 	c #F3F3F3",
"3 	c #0F0F0F",
"4 	c #BABABA",
"5 	c #F9F9F9",
"6 	c #FFFFFF",
"7 	c #F1F1F1",
"8 	c #2C2C2C",
"9 	c #B9B9B9",
"0 	c #C5C5C5",
"a 	c #8E8E8E",
"b 	c #E2E2E2",
"c 	c #C1C1C1",
"d 	c #282828",
"e 	c #DEDEDE",
"f 	c #B7B7B7",
"g 	c #505050",
"h 	c #FAFAFA",
"i 	c #F8F8F8",
"j 	c #989898",
"k 	c #6D6D6D",
"l 	c #B2B2B2",
"m 	c #A8A8A8",
"n 	c #797979",
"o 	c #292929",
"p 	c #969696",
"q 	c #838383",
"r 	c #9D9D9D",
"s 	c #6E6E6E",
"t 	c #AFAFAF",
"u 	c #D7D7D7",
"v 	c #B0B0B0",
"w 	c #CFCFCF",
"x 	c #B4B4B4",
"y 	c #BEBEBE",
"z 	c #C0C0C0",
"A 	c #868686",
"B 	c #6C6C6C",
"C 	c #BCBCBC",
"D 	c #4D4D4D",
"E 	c #F4F4F4",
"F 	c #4F4F4F",
"G 	c #C8C8C8",
"H 	c #4C4C4C",
"I 	c #888888",
"J 	c #E6E6E6",
"K 	c #343434",
"L 	c #656565",
"M 	c #040404",
"N 	c #EFEFEF",
"O 	c #F2F2F2",
"P 	c #959595",
"Q 	c #434343",
"R 	c #787878",
"S 	c #E5E5E5",
"T 	c #515151",
"U 	c #2A2A2A",
"V 	c #CCCCCC",
"W 	c #909090",
"X 	c #545454",
"Y 	c #7C7C7C",
"Z 	c #8A8A8A",
"` 	c #191919",
" .	c #1C1C1C",
"                                                                                                    ",
"                                                                                                    ",
"                                                                                                    ",
"                                                                                                    ",
"                                                                                                    ",
"                                                                                                    ",
"                                                                                                    ",
"                                                                                                    ",
"                                                                                                    ",
"                                                                                                    ",
"                                        . + + . @ # $ % & . . +                                     ",
"                                        + * .   = - ; > , + . +                                     ",
"                                        + * ' ) ! ~ ~ { ] + . +                                     ",
"                                        + ^ / ( ~ _ : < [ * + .                                     ",
"                                . .   + } | 1 < ~ _ 2 2 } .   .                                     ",
"                                + + . 3 4 5 6 < _ ~ 7 >   + + +                                     ",
"                                . $ 8 9 ~ < ~ 6 ~ _ ~ 0     . +                                     ",
"                                . a b : ~ _ ~ _ 6 _ _ c + + + +                                     ",
"                                + d e < _ _ 6 _ _ _ _ f                                             ",
"                                + + g h < _ i ~ _ 6 6 j                                             ",
"                                + +   k l e m 6 6 _ _ n                                             ",
"                                + . . + * o p _ 6 _ 6 q                                             ",
"                                            r 6 _ ~ _ s                                             ",
"                                        + + t 6 ~ _ :                                               ",
"                                          + l 6 _ _ u                                               ",
"                                          + v 6 6 _ w                                               ",
"                                        .   x _ ~ 6 y                                               ",
"                                        +   c _ _ _ r .                                             ",
"                                        +   z _ _ 6 A +                                             ",
"                                            c h _ 6 B .                                             ",
"                                        .   C e _ 5 D +                                             ",
"                                        +   x C _ E F +                                             ",
"                                        + + = G 6 : H +                                             ",
"                                        + + I J _ 6 K .                                             ",
"                                        + . L c : <   .                                             ",
"                                        + M   9 N O   *                                             ",
"                                        + .   P O ( Q .                                             ",
"                                          .   R S > F .                                             ",
"                                        + . + n ! y T .                                             ",
"                                        + . . U V W X .                                             ",
"                                        +   + ' Y Z g .                                             ",
"                                        . + . . D R ` +                                             ",
"                                                @  .  +                                             ",
"                                                + + +                                               ",
"                                                + + + +                                             ",
"                                                  + + +                                             ",
"                                                                                                    ",
"                                                                                                    ",
"                                                                                                    ",
"                                                                                                    "};
