/* XPM */
static char * digit7_xpm[] = {
"50 50 128 2",
"  	c #000000",
". 	c #020202",
"+ 	c #010101",
"@ 	c #040404",
"# 	c #030303",
"$ 	c #626262",
"% 	c #5D5D5D",
"& 	c #575757",
"* 	c #F1F1F1",
"= 	c #F6F6F6",
"- 	c #E8E8E8",
"; 	c #ACACAC",
"> 	c #B3B3B3",
", 	c #B7B7B7",
"' 	c #A4A4A4",
") 	c #DCDCDC",
"! 	c #565656",
"~ 	c #545454",
"{ 	c #5E5E5E",
"] 	c #686868",
"^ 	c #636363",
"/ 	c #7B7B7B",
"( 	c #C5C5C5",
"_ 	c #D7D7D7",
": 	c #BEBEBE",
"< 	c #A2A2A2",
"[ 	c #6F6F6F",
"} 	c #6B6B6B",
"| 	c #2F2F2F",
"1 	c #D4D4D4",
"2 	c #FBFBFB",
"3 	c #FEFEFE",
"4 	c #FFFFFF",
"5 	c #FDFDFD",
"6 	c #F3F3F3",
"7 	c #F7F7F7",
"8 	c #F0F0F0",
"9 	c #E3E3E3",
"0 	c #E0E0E0",
"a 	c #CFCFCF",
"b 	c #9F9F9F",
"c 	c #949494",
"d 	c #9D9D9D",
"e 	c #FCFCFC",
"f 	c #ECECEC",
"g 	c #DBDBDB",
"h 	c #C6C6C6",
"i 	c #313131",
"j 	c #FAFAFA",
"k 	c #6D6D6D",
"l 	c #212121",
"m 	c #BDBDBD",
"n 	c #F8F8F8",
"o 	c #E7E7E7",
"p 	c #EEEEEE",
"q 	c #AFAFAF",
"r 	c #EDEDED",
"s 	c #D8D8D8",
"t 	c #CACACA",
"u 	c #BCBCBC",
"v 	c #AEAEAE",
"w 	c #A7A7A7",
"x 	c #EFEFEF",
"y 	c #A0A0A0",
"z 	c #8C8C8C",
"A 	c #C4C4C4",
"B 	c #373737",
"C 	c #EAEAEA",
"D 	c #F9F9F9",
"E 	c #EBEBEB",
"F 	c #1A1A1A",
"G 	c #050505",
"H 	c #919191",
"I 	c #555555",
"J 	c #3C3C3C",
"K 	c #F4F4F4",
"L 	c #969696",
"M 	c #AAAAAA",
"N 	c #D2D2D2",
"O 	c #F2F2F2",
"P 	c #737373",
"Q 	c #070707",
"R 	c #BBBBBB",
"S 	c #464646",
"T 	c #585858",
"U 	c #7F7F7F",
"V 	c #B6B6B6",
"W 	c #060606",
"X 	c #D3D3D3",
"Y 	c #121212",
"Z 	c #717171",
"` 	c #676767",
" .	c #0E0E0E",
"..	c #353535",
"+.	c #4F4F4F",
"@.	c #171717",
"#.	c #2E2E2E",
"$.	c #F5F5F5",
"%.	c #999999",
"&.	c #BABABA",
"*.	c #DADADA",
"=.	c #5A5A5A",
"-.	c #D1D1D1",
";.	c #ABABAB",
">.	c #252525",
",.	c #6A6A6A",
"'.	c #E2E2E2",
").	c #D5D5D5",
"!.	c #2C2C2C",
"~.	c #989898",
"{.	c #8A8A8A",
"].	c #0C0C0C",
"^.	c #9B9B9B",
"/.	c #080808",
"(.	c #B8B8B8",
"_.	c #0F0F0F",
":.	c #828282",
"<.	c #CECECE",
"[.	c #323232",
"}.	c #C9C9C9",
"|.	c #606060",
"1.	c #4E4E4E",
"2.	c #424242",
"3.	c #282828",
"4.	c #B4B4B4",
"5.	c #1E1E1E",
"6.	c #2B2B2B",
"7.	c #0D0D0D",
"                                                                                                    ",
"                                                                                                    ",
"                                                                                                    ",
"                                                                                                    ",
"                                                                                                    ",
"                                                                                                    ",
"                          .   + +     .   . + +     . +   . + +     + + +   .                       ",
"                      + @ . #   $ %               + . +   .                                         ",
"                      + + + + & * = - ; > , ' ) ; ! ~ { ] ^ / ( _ : < [ } | # +                     ",
"                      + . + . ^ 1 * 2 = 3 4 5 3 4 6 7 2 5 5 5 4 8 9 0 a b c   @                     ",
"                        +   +   d 4 3 3 3 e 3 5 5 3 3 3 3 3 3 e f g 2 h } i                         ",
"                                < 5 4 4 4 3 4 4 3 3 4 3 4 e 5 3 3 j 9 5 k   + +                     ",
"                                l m j 4 4 5 4 4 3 5 2 3 4 n 7 4 3 e o p i   # .                     ",
"                                #   q 4 f r - s t u v w x 5 4 5 e 3 3 y   + . .                     ",
"                                  #                 . z 3 3 e 4 x r A   . # .                       ",
"                                @   . + +   .     . B C e 4 4 D E 1 F . + #                         ",
"                                          +   G #   H 5 5 3 4 e C I                                 ",
"                                          . + . . J K 4 3 5 3 4 L   .                               ",
"                                          +   + + M 5 3 3 3 e N . + .                               ",
"                                          + # + + O 4 3 5 5 5 P   Q #                               ",
"                                          + +   q 4 j 5 4 4 R   @ + +                               ",
"                                          . . | - 5 3 e e 8 S .   @ +                               ",
"                                          G   z 4 e 3 5 e _ + . + + .                               ",
"                                          + l C 5 e 3 3 D T   . +   +                               ",
"                                            U 7 4 3 5 4 V W . +                                     ",
"                                + + .   .   X 4 4 4 e N Y                                           ",
"                                #   + @   Z e 3 e e D ` + @                                         ",
"                                  . +    .t e 3 5 3 g # .                                           ",
"                                  +   . ..6 3 3 3 p +.  . .                                         ",
"                                + + +   q 4 3 5 5 V @.# + .                                         ",
"                                . + . #.C * 3 5 8 T                                                 ",
"                                + + + ] A n 3 $.q                                                   ",
"                                + G   %.&.4 e *.=.                                                  ",
"                                # #   -.p e D ;.>.                                                  ",
"                                + + ,.-.5 4 r [                                                     ",
"                                + + L '.2 4 ).!.                                                    ",
"                                # @ ~.h ) j {.].# +                                                 ",
"                                  G ^.a p 9   . + .                                                 ",
"                                + /.(.= = ;.    +                                                   ",
"                                  _.0 7 &.:.  + +                                                   ",
"                                + k <.f v [.+   .                                                   ",
"                                  ' > }.w     #                                                     ",
"                                @ +.$ ; |.  @   +                                                   ",
"                                + 1.$ U 2.. . + .                                                   ",
"                                . % 3.4.                                                            ",
"                                 .5./ 6.G                                                           ",
"                                  + 7.+                                                             ",
"                                  + . + +                                                           ",
"                                  .   +                                                             ",
"                                                                                                    "};
