/* XPM */
static char * digit4_xpm[] = {
"50 50 131 2",
"  	c #000000",
". 	c #1B1B1B",
"+ 	c #010101",
"@ 	c #020202",
"# 	c #363636",
"$ 	c #858585",
"% 	c #1D1D1D",
"& 	c #040404",
"* 	c #030303",
"= 	c #050505",
"- 	c #373737",
"; 	c #B6B6B6",
"> 	c #656565",
", 	c #4C4C4C",
"' 	c #7C7C7C",
") 	c #CACACA",
"! 	c #F6F6F6",
"~ 	c #E2E2E2",
"{ 	c #4E4E4E",
"] 	c #484848",
"^ 	c #FBFBFB",
"/ 	c #F5F5F5",
"( 	c #212121",
"_ 	c #575757",
": 	c #D4D4D4",
"< 	c #FDFDFD",
"[ 	c #FCFCFC",
"} 	c #FAFAFA",
"| 	c #EEEEEE",
"1 	c #131313",
"2 	c #585858",
"3 	c #BCBCBC",
"4 	c #FFFFFF",
"5 	c #F3F3F3",
"6 	c #6A6A6A",
"7 	c #FEFEFE",
"8 	c #9C9C9C",
"9 	c #777777",
"0 	c #DCDCDC",
"a 	c #545454",
"b 	c #6F6F6F",
"c 	c #F4F4F4",
"d 	c #F9F9F9",
"e 	c #262626",
"f 	c #121212",
"g 	c #939393",
"h 	c #0B0B0B",
"i 	c #B4B4B4",
"j 	c #F1F1F1",
"k 	c #181818",
"l 	c #080808",
"m 	c #848484",
"n 	c #E1E1E1",
"o 	c #EBEBEB",
"p 	c #979797",
"q 	c #F8F8F8",
"r 	c #E0E0E0",
"s 	c #EDEDED",
"t 	c #0E0E0E",
"u 	c #191919",
"v 	c #A9A9A9",
"w 	c #090909",
"x 	c #414141",
"y 	c #BBBBBB",
"z 	c #F2F2F2",
"A 	c #636363",
"B 	c #D1D1D1",
"C 	c #E8E8E8",
"D 	c #747474",
"E 	c #101010",
"F 	c #6D6D6D",
"G 	c #DFDFDF",
"H 	c #BDBDBD",
"I 	c #A7A7A7",
"J 	c #5E5E5E",
"K 	c #555555",
"L 	c #3D3D3D",
"M 	c #595959",
"N 	c #818181",
"O 	c #8D8D8D",
"P 	c #7B7B7B",
"Q 	c #9D9D9D",
"R 	c #E4E4E4",
"S 	c #D7D7D7",
"T 	c #BEBEBE",
"U 	c #3B3B3B",
"V 	c #0A0A0A",
"W 	c #0F0F0F",
"X 	c #868686",
"Y 	c #B8B8B8",
"Z 	c #4F4F4F",
"` 	c #DDDDDD",
" .	c #DBDBDB",
"..	c #ACACAC",
"+.	c #A0A0A0",
"@.	c #343434",
"#.	c #5B5B5B",
"$.	c #D5D5D5",
"%.	c #C1C1C1",
"&.	c #B0B0B0",
"*.	c #232323",
"=.	c #4A4A4A",
"-.	c #A3A3A3",
";.	c #A2A2A2",
">.	c #9E9E9E",
",.	c #898989",
"'.	c #5F5F5F",
").	c #5C5C5C",
"!.	c #1A1A1A",
"~.	c #CFCFCF",
"{.	c #0D0D0D",
"].	c #CCCCCC",
"^.	c #CBCBCB",
"/.	c #F7F7F7",
"(.	c #6E6E6E",
"_.	c #C5C5C5",
":.	c #E6E6E6",
"<.	c #C2C2C2",
"[.	c #B2B2B2",
"}.	c #2F2F2F",
"|.	c #C0C0C0",
"1.	c #A1A1A1",
"2.	c #242424",
"3.	c #BFBFBF",
"4.	c #888888",
"5.	c #A5A5A5",
"6.	c #6C6C6C",
"7.	c #252525",
"8.	c #282828",
"9.	c #111111",
"0.	c #323232",
"                                                                                                    ",
"                                                                                                    ",
"                                                                                                    ",
"                                                                                                    ",
"                                                                                                    ",
"                                                                                                    ",
"                                                                                                    ",
"                                                              . +                                   ",
"                                                    + @ @ @ # $ % &                                 ",
"                                                    * + = - ; > , @                                 ",
"                                                        ' ) ! ~ { *                                 ",
"                                                    @ ] ! ^ ^ / (                                   ",
"                                            + +   * _ : < [ } | 1 @                                 ",
"                                            + + & 2 3 < 4 < 5 ) @ +                                 ",
"                                            @ & 6 : ^ 4 < 7 / 8 + @                                 ",
"                                              9 0 < 7 4 < 7 } a +                                   ",
"                                    + + + @ b c 7 7 4 4 4 7 d e   +                                 ",
"                                    * * f g c ^ < < 4 7 7 4 c (                                     ",
"                                    & h i ^ 7 ^ 4 7 / 7 4 4 j k                                     ",
"                                    l m < 7 7 7 7 ) n 4 7 4 o l +                                   ",
"                            + @ + h p q 7 4 7 4 r e c 4 7 4 s t @ +                                 ",
"                              + u v [ 7 4 4 7 s {   [ 7 4 4 o w + @                                 ",
"                            @ x y z [ 7 4 [ c A @   ^ 4 4 4 B @   +                                 ",
"                            { C 5 ! 7 < < q D * + E [ 7 4 4 F @ @                                   ",
"                    + + +   G 7 4 [ 7 [ < H m I $ J < 7 7 4 J K L M J N O P u + + +                 ",
"                    + + @ w Q / 7 < 7 4 ^ q [ } } } 7 7 7 4 0 R d r S T > U V @ @                   ",
"                    + @ + @ W X < < < 4 4 } < 7 7 < 4 < 4 7 < 7 ^ r G r Y Z e + + @                 ",
"                    @ @ +     F / 4 4 7 4 < 7 7 < 7 7 4 4 d `  . ...+.N @.= + @ +                   ",
"                            @ l #.$.< < 7 [ [ } ^ d 7 7 [ j %.&.N *.h                               ",
"                            + + + =.-.;.-.>.X ,.'.).r ^ 7 Y !.+ + *                                 ",
"                            + + + +   +     * & + % ~.[ < ..{.  @ *                                 ",
"                            @ + @             @ *   | < 7 ].t   + @                                 ",
"                                                    : [ 4 ^.w                                       ",
"                                                    3 ` /.:                                         ",
"                                                    (._.:.:                                         ",
"                                                    { <.} [.                                        ",
"                                                    }.|.G 1.                                        ",
"                                                    2.3.T ;.                                        ",
"                                                      Q 4.5.                                        ",
"                                                    + { 6.1.                                        ",
"                                                    @ 7.8.I                                         ",
"                                                    @ 9.* 0.                                        ",
"                                                    @ @ + &                                         ",
"                                                    + + @ @                                         ",
"                                                                                                    ",
"                                                                                                    ",
"                                                                                                    ",
"                                                                                                    ",
"                                                                                                    ",
"                                                                                                    "};
