/* XPM */
static char * digit2_xpm[] = {
"50 50 122 2",
"  	c #000000",
". 	c #010101",
"+ 	c #020202",
"@ 	c #888888",
"# 	c #CFCFCF",
"$ 	c #E9E9E9",
"% 	c #ECECEC",
"& 	c #EEEEEE",
"* 	c #EFEFEF",
"= 	c #EAEAEA",
"- 	c #C4C4C4",
"; 	c #555555",
"> 	c #656565",
", 	c #DDDDDD",
"' 	c #FEFEFE",
") 	c #F4F4F4",
"! 	c #F1F1F1",
"~ 	c #FCFCFC",
"{ 	c #FFFFFF",
"] 	c #FDFDFD",
"^ 	c #959595",
"/ 	c #878787",
"( 	c #FAFAFA",
"_ 	c #808080",
": 	c #828282",
"< 	c #F9F9F9",
"[ 	c #F8F8F8",
"} 	c #E8E8E8",
"| 	c #202020",
"1 	c #030303",
"2 	c #353535",
"3 	c #EDEDED",
"4 	c #F2F2F2",
"5 	c #F6F6F6",
"6 	c #D4D4D4",
"7 	c #FBFBFB",
"8 	c #919191",
"9 	c #5A5A5A",
"0 	c #E4E4E4",
"a 	c #CECECE",
"b 	c #414141",
"c 	c #BEBEBE",
"d 	c #707070",
"e 	c #1F1F1F",
"f 	c #B6B6B6",
"g 	c #B5B5B5",
"h 	c #040404",
"i 	c #545454",
"j 	c #616161",
"k 	c #424242",
"l 	c #D1D1D1",
"m 	c #101010",
"n 	c #383838",
"o 	c #E3E3E3",
"p 	c #0F0F0F",
"q 	c #3C3C3C",
"r 	c #E6E6E6",
"s 	c #DADADA",
"t 	c #121212",
"u 	c #6E6E6E",
"v 	c #C8C8C8",
"w 	c #0C0C0C",
"x 	c #222222",
"y 	c #D0D0D0",
"z 	c #A1A1A1",
"A 	c #EBEBEB",
"B 	c #313131",
"C 	c #777777",
"D 	c #F5F5F5",
"E 	c #979797",
"F 	c #5F5F5F",
"G 	c #BDBDBD",
"H 	c #5D5D5D",
"I 	c #CBCBCB",
"J 	c #484848",
"K 	c #C2C2C2",
"L 	c #252525",
"M 	c #434343",
"N 	c #E5E5E5",
"O 	c #C0C0C0",
"P 	c #232323",
"Q 	c #3D3D3D",
"R 	c #D7D7D7",
"S 	c #B3B3B3",
"T 	c #2E2E2E",
"U 	c #C3C3C3",
"V 	c #E0E0E0",
"W 	c #9F9F9F",
"X 	c #292929",
"Y 	c #323232",
"Z 	c #D9D9D9",
"` 	c #161616",
" .	c #242424",
"..	c #AAAAAA",
"+.	c #8D8D8D",
"@.	c #181818",
"#.	c #464646",
"$.	c #BBBBBB",
"%.	c #D6D6D6",
"&.	c #DFDFDF",
"*.	c #6A6A6A",
"=.	c #696969",
"-.	c #CCCCCC",
";.	c #B4B4B4",
">.	c #A0A0A0",
",.	c #BABABA",
"'.	c #A9A9A9",
").	c #676767",
"!.	c #262626",
"~.	c #E2E2E2",
"{.	c #BFBFBF",
"].	c #272727",
"^.	c #CDCDCD",
"/.	c #A4A4A4",
"(.	c #A6A6A6",
"_.	c #585858",
":.	c #C1C1C1",
"<.	c #A7A7A7",
"[.	c #9D9D9D",
"}.	c #7F7F7F",
"|.	c #2D2D2D",
"1.	c #050505",
"                                                                                                    ",
"                                                                                                    ",
"                                                                                                    ",
"                                                                                                    ",
"                                                                                                    ",
"                                                                                                    ",
"                                                                                                    ",
"                                                                                                    ",
"                                          . + . . .   .     . + .                                   ",
"                                          . + .               + +                                   ",
"                                          .   @ # $ % & * = - ;                                     ",
"                                          > , ' ) & ! ~ { { ] ) ^ +                                 ",
"                                  + +   / * % ~ { { ' ] ' ] { ' ( _ . + .                           ",
"                                  .   : < = [ ' ] ] ] ] ] ' ] { ' } | 1 .                           ",
"                                  1 2 , 3 4 { ' 5 6 ( { { { ] ] { 7 8   .                           ",
"                                  + 9 0 a b c d     e     f ' { ' 7 g h .                           ",
"                                  . 1 i j                 k % ' { { l m .                           ",
"                                  . + . 1                 n o ' ' ' # p .                           ",
"                                  + . + .                 q r ' ' ' s t +                           ",
"                                  + . . 1                 u 7 ] ' ' v w +                           ",
"                                                  . .   x y ' { ' ~ z   +                           ",
"                                                  . 1   ^ ' ' ~ ] A B   +                           ",
"                                                      C D ' ' ' ( E 1 .                             ",
"                                                    F A ] ' ] ~ g . + . +                           ",
"                                          . 1 + . F 3 ] ' ] ~ G                                     ",
"                                          . .   H o ] ' ~ ' I h +                                   ",
"                                          . + J A ' ] ~ ~ K L . +                                   ",
"                                            M N ] { { ~ O P . + .                                   ",
"                                  1 . . . Q R ~ ] ' ( S P                                           ",
"                                  + + + T U V ] ' < W X                                             ",
"                                  + 1 Y K Z ] ] < ^ ` h .                                           ",
"                                     ...# ] ] = +.@.. . +                                           ",
"                          1 . . #.$.%.o ' ~ &.*.            + +           .   . .                   ",
"                          + +   =.D 7 ] ' ' D A * * A -.;.>.>...,.I # '.).w + + +                   ",
"                            1 1 !.R ' ] ' ' ] ' ' ] ' ' ' ' { ~ < ! ~.{.> ].. + .                   ",
"                          . . .   W ] ] ~ ' { ' { { { { ' ' { ] ^.g /.H X . + + .                   ",
"                                  Q $ ] ' { { { { ] ] ' ' $ a # (._.    +                           ",
"                                    ; c v v v v v :.$.<.[.}.|.    . 1 . .                           ",
"                                  . +               + 1.. + + + . . + . .                           ",
"                                  h . . .         . + . + . + . + . + .                             ",
"                                                                                                    ",
"                                                                                                    ",
"                                                                                                    ",
"                                                                                                    ",
"                                                                                                    ",
"                                                                                                    ",
"                                                                                                    ",
"                                                                                                    ",
"                                                                                                    ",
"                                                                                                    "};
