/* XPM */
static char * digit5_xpm[] = {
"50 50 149 2",
"  	c #000000",
". 	c #010101",
"+ 	c #020202",
"@ 	c #212121",
"# 	c #9E9E9E",
"$ 	c #9D9D9D",
"% 	c #787878",
"& 	c #474747",
"* 	c #333333",
"= 	c #2C2C2C",
"- 	c #6A6A6A",
"; 	c #5F5F5F",
"> 	c #0E0E0E",
", 	c #404040",
"' 	c #303030",
") 	c #363636",
"! 	c #424242",
"~ 	c #565656",
"{ 	c #696969",
"] 	c #747474",
"^ 	c #717171",
"/ 	c #606060",
"( 	c #3F3F3F",
"_ 	c #EBEBEB",
": 	c #FDFDFD",
"< 	c #E1E1E1",
"[ 	c #F1F1F1",
"} 	c #FBFBFB",
"| 	c #FAFAFA",
"1 	c #E2E2E2",
"2 	c #DDDDDD",
"3 	c #F5F5F5",
"4 	c #DADADA",
"5 	c #E7E7E7",
"6 	c #EEEEEE",
"7 	c #BFBFBF",
"8 	c #B7B7B7",
"9 	c #030303",
"0 	c #242424",
"a 	c #DFDFDF",
"b 	c #F9F9F9",
"c 	c #FCFCFC",
"d 	c #FFFFFF",
"e 	c #FEFEFE",
"f 	c #F2F2F2",
"g 	c #F8F8F8",
"h 	c #C3C3C3",
"i 	c #111111",
"j 	c #9B9B9B",
"k 	c #DEDEDE",
"l 	c #C1C1C1",
"m 	c #818181",
"n 	c #3B3B3B",
"o 	c #070707",
"p 	c #434343",
"q 	c #ECECEC",
"r 	c #E4E4E4",
"s 	c #C5C5C5",
"t 	c #777777",
"u 	c #BABABA",
"v 	c #F0F0F0",
"w 	c #D9D9D9",
"x 	c #A9A9A9",
"y 	c #929292",
"z 	c #E8E8E8",
"A 	c #292929",
"B 	c #1C1C1C",
"C 	c #454545",
"D 	c #F6F6F6",
"E 	c #101010",
"F 	c #555555",
"G 	c #888888",
"H 	c #7F7F7F",
"I 	c #040404",
"J 	c #939393",
"K 	c #F3F3F3",
"L 	c #EAEAEA",
"M 	c #ABABAB",
"N 	c #979797",
"O 	c #999999",
"P 	c #3E3E3E",
"Q 	c #595959",
"R 	c #E6E6E6",
"S 	c #BDBDBD",
"T 	c #151515",
"U 	c #4F4F4F",
"V 	c #9C9C9C",
"W 	c #232323",
"X 	c #CECECE",
"Y 	c #2B2B2B",
"Z 	c #060606",
"` 	c #080808",
" .	c #9F9F9F",
"..	c #959595",
"+.	c #161616",
"@.	c #F4F4F4",
"#.	c #EFEFEF",
"$.	c #121212",
"%.	c #737373",
"&.	c #464646",
"*.	c #666666",
"=.	c #6C6C6C",
"-.	c #AAAAAA",
";.	c #898989",
">.	c #5C5C5C",
",.	c #A6A6A6",
"'.	c #050505",
").	c #0C0C0C",
"!.	c #323232",
"~.	c #B5B5B5",
"{.	c #3A3A3A",
"].	c #616161",
"^.	c #8E8E8E",
"/.	c #1E1E1E",
"(.	c #0B0B0B",
"_.	c #5E5E5E",
":.	c #6D6D6D",
"<.	c #4B4B4B",
"[.	c #CDCDCD",
"}.	c #B2B2B2",
"|.	c #626262",
"1.	c #878787",
"2.	c #656565",
"3.	c #7E7E7E",
"4.	c #B3B3B3",
"5.	c #AFAFAF",
"6.	c #7A7A7A",
"7.	c #909090",
"8.	c #5D5D5D",
"9.	c #969696",
"0.	c #C2C2C2",
"a.	c #B4B4B4",
"b.	c #D0D0D0",
"c.	c #ADADAD",
"d.	c #EDEDED",
"e.	c #E3E3E3",
"f.	c #D3D3D3",
"g.	c #B9B9B9",
"h.	c #E0E0E0",
"i.	c #DCDCDC",
"j.	c #A3A3A3",
"k.	c #6F6F6F",
"l.	c #181818",
"m.	c #757575",
"n.	c #A7A7A7",
"o.	c #F7F7F7",
"p.	c #808080",
"q.	c #1B1B1B",
"r.	c #444444",
"                                                                                                    ",
"                                                                                                    ",
"                                                                                                    ",
"                                                                                                    ",
"                                                                                                    ",
"                                                                                                    ",
"                                                                                                    ",
"                              .   .   .   .       . .                 .                             ",
"                            . .     . + + . +   + . +   . . .         .                             ",
"                              @ # $ % & * = - ; > * , ' ) ! ~ { ] ^ / .                             ",
"                              ( _ : < [ } | } : | 1 2 3 4 5 6 7 8 ] ' 9                             ",
"                            . 0 a | b c d c e : e d : e e } f g 5 h i                               ",
"                            .   j : d e : d e e d } : e e b k l m n o 9                             ",
"                              . p q e e : c : e e | d b r s t !   . . +                             ",
"                            . . . u e : e c v w u x y {       .   + + .                             ",
"                                o z : d : d t     9 9 .   . 9 +   .   +                             ",
"                              . A [ e : e g B                                                       ",
"                                C D e e c < E                                                       ",
"                              + F e e : e G .                                                       ",
"                                H | d | [ I .                                                       ",
"                                J K d d L M N O - P     +   + . . . .                               ",
"                              Q [ e e e } 3 : f b d c R S T .   9 I . .                             ",
"                              U k [ c e e b e : d e } e e b V   + + . I                             ",
"                              9 ( w c e c e c c d d e : | e e 2 ! . . .                             ",
"                              . W X 6 [ [ b : d d d d e d } : d 5 Y   .                             ",
"                              Z `  .O ..+.5 @.#.K K 3 d : e : d d j   +                             ",
"                            . +   $., %.  9 0 A B @ &.V : : e e e f   +                             ",
"                              + + 9   + +   I + .   +   *.c d } } d =.                              ",
"                            . . . + 9 + +   +       .     -.: d d d ;..                             ",
"                    . . + . .     9 .                 .   >.} e d e ,.9                             ",
"                      . .   '.).+ . 9                 . . !.b d e } ~.+                             ",
"                    9 .     {.F Z 9 .                   9 ].} e } : ^.9                             ",
"                      + +   J * /.(.                  .   l : : d v _.                              ",
"                            :.<.:.~ 9 .   .     . .     ^.e : e e [.  .                             ",
"                            o }.|.[.1.'.. I 9 . 9   $.-.5 : d e @.t   +                             ",
"                              2.3.4.a 5.,.6.7.8.9.0.a.b.K c d c 7.+ +                               ",
"                                7.c.z d.e.f.x g.h.i.f : : : } j.0 + + .                             ",
"                            . +   k.N b.1 _ #.e : : e d K X % l.. .   .                             ",
"                              .   .   m.n.[.#.e o.3 k g.p.~ .                                       ",
"                              . 9 .   + + q.W ' r.- *.+.(.  Z +                                     ",
"                              9   .   I . 9         + . .   . .                                     ",
"                                . . . . 9   + 9 9   +       9 I                                     ",
"                                                                                                    ",
"                                                                                                    ",
"                                                                                                    ",
"                                                                                                    ",
"                                                                                                    ",
"                                                                                                    ",
"                                                                                                    ",
"                                                                                                    "};
