/* XPM */
static char * digit6_xpm[] = {
"50 50 151 2",
"  	c #000000",
". 	c #020202",
"+ 	c #010101",
"@ 	c #030303",
"# 	c #060606",
"$ 	c #575757",
"% 	c #A9A9A9",
"& 	c #BABABA",
"* 	c #A3A3A3",
"= 	c #D9D9D9",
"- 	c #E0E0E0",
"; 	c #B5B5B5",
"> 	c #2E2E2E",
", 	c #1B1B1B",
"' 	c #A1A1A1",
") 	c #F9F9F9",
"! 	c #FCFCFC",
"~ 	c #FAFAFA",
"{ 	c #FEFEFE",
"] 	c #FFFFFF",
"^ 	c #F6F6F6",
"/ 	c #1D1D1D",
"( 	c #454545",
"_ 	c #DBDBDB",
": 	c #FDFDFD",
"< 	c #F4F4F4",
"[ 	c #DDDDDD",
"} 	c #AAAAAA",
"| 	c #040404",
"1 	c #8B8B8B",
"2 	c #FBFBFB",
"3 	c #F8F8F8",
"4 	c #F1F1F1",
"5 	c #EBEBEB",
"6 	c #828282",
"7 	c #B6B6B6",
"8 	c #F3F3F3",
"9 	c #E7E7E7",
"0 	c #EDEDED",
"a 	c #EAEAEA",
"b 	c #C3C3C3",
"c 	c #4F4F4F",
"d 	c #D2D2D2",
"e 	c #DCDCDC",
"f 	c #B1B1B1",
"g 	c #424242",
"h 	c #272727",
"i 	c #BEBEBE",
"j 	c #B8B8B8",
"k 	c #5A5A5A",
"l 	c #757575",
"m 	c #797979",
"n 	c #E6E6E6",
"o 	c #CDCDCD",
"p 	c #343434",
"q 	c #999999",
"r 	c #C4C4C4",
"s 	c #0F0F0F",
"t 	c #2F2F2F",
"u 	c #161616",
"v 	c #181818",
"w 	c #5C5C5C",
"x 	c #E5E5E5",
"y 	c #C0C0C0",
"z 	c #C7C7C7",
"A 	c #E1E1E1",
"B 	c #CACACA",
"C 	c #777777",
"D 	c #C1C1C1",
"E 	c #F5F5F5",
"F 	c #DADADA",
"G 	c #6D6D6D",
"H 	c #121212",
"I 	c #DFDFDF",
"J 	c #9D9D9D",
"K 	c #303030",
"L 	c #EEEEEE",
"M 	c #C6C6C6",
"N 	c #2D2D2D",
"O 	c #444444",
"P 	c #CECECE",
"Q 	c #6A6A6A",
"R 	c #9E9E9E",
"S 	c #717171",
"T 	c #686868",
"U 	c #6B6B6B",
"V 	c #A7A7A7",
"W 	c #A8A8A8",
"X 	c #E4E4E4",
"Y 	c #909090",
"Z 	c #8C8C8C",
"` 	c #595959",
" .	c #B4B4B4",
"..	c #AFAFAF",
"+.	c #ADADAD",
"@.	c #0B0B0B",
"#.	c #B9B9B9",
"$.	c #848484",
"%.	c #1E1E1E",
"&.	c #3F3F3F",
"*.	c #F7F7F7",
"=.	c #252525",
"-.	c #D7D7D7",
";.	c #A2A2A2",
">.	c #C9C9C9",
",.	c #BDBDBD",
"'.	c #CCCCCC",
").	c #B3B3B3",
"!.	c #333333",
"~.	c #BCBCBC",
"{.	c #2A2A2A",
"].	c #959595",
"^.	c #050505",
"/.	c #202020",
"(.	c #D0D0D0",
"_.	c #CBCBCB",
":.	c #CFCFCF",
"<.	c #7C7C7C",
"[.	c #0E0E0E",
"}.	c #474747",
"|.	c #787878",
"1.	c #BBBBBB",
"2.	c #EFEFEF",
"3.	c #F2F2F2",
"4.	c #747474",
"5.	c #838383",
"6.	c #D5D5D5",
"7.	c #171717",
"8.	c #ECECEC",
"9.	c #F0F0F0",
"0.	c #C8C8C8",
"a.	c #2C2C2C",
"b.	c #3B3B3B",
"c.	c #616161",
"d.	c #E9E9E9",
"e.	c #9B9B9B",
"f.	c #606060",
"g.	c #8A8A8A",
"h.	c #515151",
"i.	c #A0A0A0",
"j.	c #4D4D4D",
"k.	c #4A4A4A",
"l.	c #101010",
"m.	c #585858",
"n.	c #8E8E8E",
"o.	c #818181",
"p.	c #D3D3D3",
"q.	c #5D5D5D",
"r.	c #323232",
"s.	c #2B2B2B",
"t.	c #070707",
"                                                                                                    ",
"                                                                                                    ",
"                                                                                                    ",
"                                                                                                    ",
"                                                                                                    ",
"                                                                                                    ",
"                                            . + +   . + +   + +     +                               ",
"                                          + + @ @ .             + @                                 ",
"                                          . # #   $ % & * = - ; > @ .                               ",
"                                          . . , ' ) ! ~ { { ] ^ $ / .                               ",
"                                          . ( _ { : { ] { { { < [ }                                 ",
"                                  | + .   1 ^ 2 ] : { { ^ 3 4 5 : 6                                 ",
"                                @ @   + 7 ] ! ! ! { 2 8 9 0 a b c                                   ",
"                                  . , d ] 2 { { { ~ { e f g h @ # + .                               ",
"                                +   i : { ! 2 ] ] ! j k   | + . + @                                 ",
"                        .       @ l ! { { ! ] ] 5 m   @ + .       +                                 ",
"                        + . @ @   n { 3 { : : o p . +   . .                                         ",
"                        . +   . q ! ] ] { ] r s + .   | + +                                         ",
"                        + + +   [ ] : ] ] 4 t u v + @ + + +                                         ",
"                        +   + w ] ] ] : ] x y z A _ B C   +                                         ",
"                        .   . D : ] { { { x E ~ ! { ! ] F G   | + + +                               ",
"                        + + H I ] { ] { ] { : ] ] : ] ! ! 2 J     |                                 ",
"                        . + K L ] ] { ] : { : ] { ! : { ] { : M N . +                               ",
"                          | O { { ] { : 2 : ~ ] : ! ] : 2 ] { 2 P @ +                               ",
"                        .   Q ] { ! ! R S T U 7 V W X { ] ] ] ] ! Y   . + +                         ",
"                        +   Z ] { ] 3 `   . +     @    .: ] : : { 0   + + + .                       ",
"                            ..] ] ) < (   + + + + + @ | +.2 { : ] ~ Q @ + . +                       ",
"                            V ] : { 8 K   + . + @ . .   @.#.] { { { V   . +                         ",
"                        +   $.{ ] 2 < g . + . .   + +   + %.^ { ! { P     .                         ",
"                        @   &.) : { *.l   + . . +   +       o { { : F     + +                       ",
"                        + @ =.-.x : ) ;.+ . @ + +     . @   >.] ! { P   + + .                       ",
"                        + + @ ,.'.: { '.$ +       .     +   4 { ] : ).    @                         ",
"                        + . . !.~.0 { ~ b {.+ . + + . @ . ].] ] { : 6   @ +                         ",
"                          +     ' ; : : ) ~.^.+ + + + + /.(.) { { _.g   +                           ",
"                                  i :.2 { 3 e <.[.    }.b e ] ] ) |.                                ",
"                                  ^.1.9 2.3.A x o 4.5.d 6.{ { < W t                                 ",
"                                u 7., * 1.j 8.L 9.L A ~ : { *.0.a.  +                               ",
"                                [.b.c.f B F >.-.^ ^ ] { ] d.e.>   +                                 ",
"                        +     @ f.$.g.h.i.9 8 0 4 9.*.< e ].j.k.l..                                 ",
"                            + +     m.W n.o.W :.p.z #.q.    . . |                                   ",
"                        + +   + +   . + 7.K r.s.K =.^.    + +     .                                 ",
"                            + + @ + ^.@ . .   t.  . |   | +   @   +                                 ",
"                        +         .   +     +   +         +     .                                   ",
"                                                                                                    ",
"                                                                                                    ",
"                                                                                                    ",
"                                                                                                    ",
"                                                                                                    ",
"                                                                                                    ",
"                                                                                                    "};
