/* XPM */
static char * digit9_xpm[] = {
"50 50 156 2",
"  	c #000000",
". 	c #010101",
"+ 	c #020202",
"@ 	c #030303",
"# 	c #040404",
"$ 	c #050505",
"% 	c #494949",
"& 	c #6F6F6F",
"* 	c #A8A8A8",
"= 	c #C3C3C3",
"- 	c #B7B7B7",
"; 	c #B6B6B6",
"> 	c #949494",
", 	c #545454",
"' 	c #505050",
") 	c #0B0B0B",
"! 	c #070707",
"~ 	c #0E0E0E",
"{ 	c #303030",
"] 	c #8D8D8D",
"^ 	c #D5D5D5",
"/ 	c #EBEBEB",
"( 	c #F9F9F9",
"_ 	c #E4E4E4",
": 	c #DCDCDC",
"< 	c #D8D8D8",
"[ 	c #D9D9D9",
"} 	c #CDCDCD",
"| 	c #7E7E7E",
"1 	c #7A7A7A",
"2 	c #999999",
"3 	c #6E6E6E",
"4 	c #333333",
"5 	c #656565",
"6 	c #A1A1A1",
"7 	c #F0F0F0",
"8 	c #FCFCFC",
"9 	c #FEFEFE",
"0 	c #F4F4F4",
"a 	c #FDFDFD",
"b 	c #E6E6E6",
"c 	c #E8E8E8",
"d 	c #E0E0E0",
"e 	c #D6D6D6",
"f 	c #B2B2B2",
"g 	c #A2A2A2",
"h 	c #404040",
"i 	c #353535",
"j 	c #373737",
"k 	c #5C5C5C",
"l 	c #BCBCBC",
"m 	c #EFEFEF",
"n 	c #F7F7F7",
"o 	c #F1F1F1",
"p 	c #ECECEC",
"q 	c #D0D0D0",
"r 	c #595959",
"s 	c #323232",
"t 	c #C4C4C4",
"u 	c #FFFFFF",
"v 	c #DEDEDE",
"w 	c #DDDDDD",
"x 	c #D7D7D7",
"y 	c #E5E5E5",
"z 	c #DBDBDB",
"A 	c #F2F2F2",
"B 	c #D1D1D1",
"C 	c #CECECE",
"D 	c #4A4A4A",
"E 	c #262626",
"F 	c #BEBEBE",
"G 	c #AFAFAF",
"H 	c #BFBFBF",
"I 	c #4E4E4E",
"J 	c #565656",
"K 	c #8C8C8C",
"L 	c #F6F6F6",
"M 	c #FAFAFA",
"N 	c #EDEDED",
"O 	c #C6C6C6",
"P 	c #525252",
"Q 	c #767676",
"R 	c #BBBBBB",
"S 	c #B3B3B3",
"T 	c #DADADA",
"U 	c #C7C7C7",
"V 	c #181818",
"W 	c #F3F3F3",
"X 	c #0F0F0F",
"Y 	c #F5F5F5",
"Z 	c #B5B5B5",
"` 	c #6D6D6D",
" .	c #FBFBFB",
"..	c #ABABAB",
"+.	c #232323",
"@.	c #B1B1B1",
"#.	c #C8C8C8",
"$.	c #363636",
"%.	c #979797",
"&.	c #3F3F3F",
"*.	c #B0B0B0",
"=.	c #929292",
"-.	c #393939",
";.	c #A3A3A3",
">.	c #212121",
",.	c #919191",
"'.	c #909090",
").	c #4D4D4D",
"!.	c #E7E7E7",
"~.	c #2B2B2B",
"{.	c #838383",
"].	c #696969",
"^.	c #EAEAEA",
"/.	c #060606",
"(.	c #808080",
"_.	c #474747",
":.	c #8A8A8A",
"<.	c #6C6C6C",
"[.	c #515151",
"}.	c #7F7F7F",
"|.	c #8F8F8F",
"1.	c #3A3A3A",
"2.	c #3E3E3E",
"3.	c #555555",
"4.	c #AAAAAA",
"5.	c #626262",
"6.	c #9E9E9E",
"7.	c #585858",
"8.	c #747474",
"9.	c #E9E9E9",
"0.	c #F8F8F8",
"a.	c #BABABA",
"b.	c #E3E3E3",
"c.	c #1F1F1F",
"d.	c #1C1C1C",
"e.	c #A5A5A5",
"f.	c #686868",
"g.	c #282828",
"h.	c #0D0D0D",
"i.	c #989898",
"j.	c #AEAEAE",
"k.	c #252525",
"l.	c #383838",
"m.	c #666666",
"n.	c #171717",
"o.	c #4B4B4B",
"p.	c #888888",
"q.	c #3B3B3B",
"r.	c #737373",
"s.	c #EEEEEE",
"t.	c #D2D2D2",
"u.	c #5E5E5E",
"v.	c #090909",
"w.	c #E2E2E2",
"x.	c #CACACA",
"y.	c #292929",
"                                                                                                    ",
"                                                                                                    ",
"                                                                                                    ",
"                                                                                                    ",
"                                                                                                    ",
"                            .   . +       +   . . +       + .     .     +                           ",
"                              @ +     +   . #             . . @ + . . .   @                         ",
"                              $ . . . .     % & * = - ; > , ' ) # . @ .                             ",
"                                  ! ~ { ] ^ / ( _ : < [ } | 1 2 3 $ .     @                         ",
"                            . . + 4 5 6 7 8 9 0 a b c d e f g h i j + . + .                         ",
"                            .   . k l m a 9 n 0 o 0 p q q 6 r s k @     .                           ",
"                              . h t u u 8 v w x g y z A w B C D   # . #   +                         ",
"                              E F u 9 8 G H I   J K ^ L a M N O P @ . + #                           ",
"                              Q ( 8 9 w R . +       s S L 9 a T U   @ + . .                         ",
"                            V } u u M W D @   +     + X g Y 8 8 Z - ! . +                           ",
"                            `  .9 u u ..  . @ +         +.@. .a ( #.$.. $                           ",
"                            %.a 8 9 8 &.+ + . .           5 [  .9 z *.  .                           ",
"                            =. .a 9 0 -.+ + @ .           $.;.M 8 p N >.. .                         ",
"                            ,.8 9 9 u `   $   +         @   '. .a a Y ).+ .                         ",
"                            3  .a 9 8 !.~.  @ + . .   .     {.0 u u  .].  .                         ",
"                              ^.9 8 u a B   + . # . + /.    (.L a u u `   .                         ",
"                              S 9 9 a u 8 q _.        @ .   :.M a u u <.. .                         ",
"                              [.L 9 9 9 M 9 0 g }.'.|.1.2.3.4. .u 9  .5..                           ",
"                            . @ 6.u 8 9  .9 u 9 u 8 8 0 0 L M u a u n 7..                           ",
"                              +   4.M a a 9 9 9 8 a 9 9 u u u a u a m j .                           ",
"                              . +   8.9.u a a a a 8 u a 9 8 a u u u !.@                             ",
"                              . . @ . $.< ( 9 u u u d 9.0.9 9 u 9 u a.  . .                         ",
"                              +   +       r R b m _ b < b.8 u a u 9 3.                              ",
"                            .   +   + + . .           c./ u 9 u u b d.@ .                           ",
"                                          . . . . .   e.u a 9 a 9 R + . + .                         ",
"                                      . .   .   +   f.A 9 u 9 9  .g.  # .                           ",
"                                          .     h.i.W u u 9 8 u j.  @ . +                           ",
"                                      .   .   k.U a a u u 8 a m 1.. + . + .                         ",
"                              . . @ .     l.%.o 9 9 u 8 u 9 0.m.                                    ",
"                            . .     n.o.] w Y a u a u 8 u  .p.# +                                   ",
"                              + q.;._ A L !.8 M 9 u a u 0.r.  $ .                                   ",
"                              &.s.W b a o u a u 9 8 u z 3.  @   .                                   ",
"                              3.z c u u 9 9 u a u L ; h.    . + .                                   ",
"                            . ~ &.t.a 9  .9 8 a p u.@                                               ",
"                            + . v.> [ w.x.|.z ] y.  + $                                             ",
"                            + .                 . + .   .                                           ",
"                              + + . + . .   . + $ . $                                               ",
"                              .                   .                                                 ",
"                                                                                                    ",
"                                                                                                    ",
"                                                                                                    ",
"                                                                                                    ",
"                                                                                                    ",
"                                                                                                    ",
"                                                                                                    "};
