/* XPM */
static char * dino_cursor_xpm[] = {
"33 40 19 1",
" 	c #FFFFFE",
".	c #000000",
"+	c #22B14C",
"@	c #177B35",
"#	c #0B3C19",
"$	c #105625",
"%	c #FFFFFF",
"&	c #B2B2B2",
"*	c #64C882",
"=	c #ED1C24",
"-	c #00290B",
";	c #005719",
">	c #003C11",
",	c #92D8A7",
"'	c #94B69E",
")	c #F8ECBA",
"!	c #F5E49C",
"~	c #001C07",
"{	c #001304",
"                                 ",
"                                 ",
" ........                        ",
"..++@#$@..                       ",
".++%.+&.$..                      ",
".++..+..@@.                      ",
".++++++++$.                      ",
".*....+++$.                      ",
".**.==+++@..                     ",
"...***+++@@.                     ",
"  ...*++++#.                     ",
"    ..++++@.                     ",
"     .+++++.. .....            ..",
"     .+++++$...@-;....         ..",
"     .++++++@@@+@@@@@...      ...",
"     .++++++->@;>;@>;@@..     .$.",
"     ..+++++;;+;;;+>;+>>..   ..$.",
"      .+++++++;;+++++@;>#.. ..$$.",
"      .+++++++;;+;;+;>+;>$. .$@@.",
"      .++++++++++;;+;;+>;@...$++.",
"      .*++++++++++++++++++++$@+..",
"      .*++++++++++++++++>;+++++. ",
"      ..**++++++++++++++;>+++++. ",
"       ..,+++++++++++++++++++++. ",
"      ....**+++++++++++++++++++. ",
"      .++..****++++++++++++++++. ",
"     ..+++...****+++++++++++++.. ",
"     .+++++....*,+*+++++++++*+.  ",
"    ..+++++.>>...,,+++++++++*..  ",
"    .+++++..>>. ...''***+***..   ",
"   ..*++++.;->.   ...****....    ",
"   .)!++++.;-;.     ......-.     ",
"   ..)!+++.>>..     .+++.~-.     ",
"    ..)**..>;.     ..+++.{.      ",
"     .....;>..     .++++.-.      ",
"         ....     ..)***...      ",
"                  ..))...        ",
"                   ....          ",
"                                 ",
"                                 "};
