/* XPM */
static char * dino_mouse_xpm[] = {
"33 40 18 1",
" 	c #FFFFFE",
".	c #000000",
"+	c #054639",
"@	c #076451",
"#	c #0A8F74",
"$	c #004705",
"%	c #006607",
"&	c #00920A",
"*	c #00D10E",
"=	c #4DDF57",
"-	c #033128",
";	c #4DB354",
">	c #FFFFFF",
",	c #83E98A",
"'	c #FFA3B1",
")	c #FFBFC9",
"!	c #08C446",
"~	c #003203",
"                                 ",
"             ......              ",
"            .++@++@.             ",
"            .+@++##..            ",
"     ....   .@@@####.            ",
"   ...@@..  ............         ",
"  ..@@@##....$%%%&*&&&&...       ",
"  .@@###...&&%*&%%&&&&*=*..      ",
"  .@-@#..*%%*&%%*******;;=..     ",
"  ..@#..&&%%%&***********==..    ",
"   ....&&*&&**************==..   ",
"     .&$&&&******************..  ",
".... .&%%*********************.  ",
".@@...%%$********************=.  ",
".@##.&%%%&*******************=.. ",
".++#.%$%&&**..>**********..>*,=. ",
".#+#.&$&&&**...**********...*=*. ",
"...@.%%*&*''...**********...')*. ",
"  ...*%%&*'''**************'')*. ",
"    .&%%**'''**************'''*. ",
"    ..$$********************=*.. ",
"     .&%********.******.***===.  ",
"  ....*$********!.****.!**====.  ",
"  .@@.*~&********!....!*=====*.  ",
" .@@#..%$*********!!!!*======..  ",
"..+###..%&&**********====*==..   ",
".@+##@#..*&*****===========..    ",
".@+##@......**========*.....     ",
"..+@@#.     ............         ",
" .@++..     .&&&&&&&&%&.         ",
"  ....      .&&******&&.         ",
"          ...&********&.         ",
"         ..+.**********.         ",
"        ..+*..********..         ",
"       ..+&..*.******.*..        ",
"      ..+*..***.****..**&.       ",
"     ..@&*.***&.****.**&&.       ",
"     .@&&*.*&&@.****.**@#.       ",
"     ..*&...&@#.****.*&#..       ",
"      .... .... .... ....        "};
